<?xml version="1.0" standalone="no"?><!DOCTYPE svg PUBLIC "-//W3C//DTD SVG 1.1//EN" "http://www.w3.org/Graphics/SVG/1.1/DTD/svg11.dtd"><svg t="1555140598179" class="icon" style="" viewBox="0 0 1024 1024" version="1.1" xmlns="http://www.w3.org/2000/svg" p-id="1488" xmlns:xlink="http://www.w3.org/1999/xlink" width="200" height="200"><defs><style type="text/css"></style></defs><path d="M64 551.68l-64 64V917.333333h302.72l64-64 432.853333-432.853333a106.666667 106.666667 0 0 0 0-150.826667l-150.826666-150.826666a106.666667 106.666667 0 0 0-150.826667 0z m689.28-176.426667L276.266667 853.333333H64v-211.2L543.146667 164.053333a42.666667 42.666667 0 0 1 60.373333 0l150.826667 150.826667a42.666667 42.666667 0 0 1 0 60.373333z" p-id="1489"></path><path d="M445.696 427.626667l150.826667-150.848 45.269333 45.226666-150.826667 150.869334z" fill="#1C83B9" p-id="1490"></path><path d="M469.333333 853.333333h554.666667v64H469.333333zM640 661.333333h384v64H640z" p-id="1491"></path></svg>